<svg id="Layer_1" data-name="Layer 1" xmlns="http://www.w3.org/2000/svg" viewBox="0 0 850.39 850.39"><defs><style>.cls-1{fill:#33669a;}.cls-2{fill:#9fc9eb;}.cls-3,.cls-5{fill:none;stroke-miterlimit:10;}.cls-3{stroke:#9fc9eb;stroke-width:41px;}.cls-4{fill:#fdcc9a;}.cls-5{stroke:#231f20;stroke-linecap:round;stroke-width:9px;opacity:0.7;}.cls-6{fill:#ffcd34;}.cls-7{fill:#c9992c;}.cls-8{fill:#ca9a2c;}.cls-9{fill:#ffce35;}</style></defs><rect class="cls-1" width="850.39" height="850.39" rx="82.36"/><path class="cls-2" d="M850.39,768A82.6,82.6,0,0,1,768,850.39H82.36A82.6,82.6,0,0,1,0,768Z"/><path class="cls-3" d="M1.15,747.69c53.07,0,53.07,38,106.15,38s53.07-38,106.15-38,53.08,38,106.16,38,53.07-38,106.15-38,53.08,38,106.15,38,53.08-38,106.16-38,53.08,38,106.16,38,53.08-38,106.16-38"/><path class="cls-4" d="M59.4,189.94V163.76a75.66,75.66,0,0,1,6.18-30.55A78.85,78.85,0,0,1,107,91.76a75.66,75.66,0,0,1,30.55-6.18h85.81a57.53,57.53,0,0,1,19.27-18.91,48.94,48.94,0,0,1,25.82-7.27v46.54a76.74,76.74,0,0,1,19.27,26.18,75.9,75.9,0,0,1,6.91,31.64V320.84a12,12,0,0,0,4,8.91,12.82,12.82,0,0,0,9.09,3.82,15,15,0,0,0,5.64-1.1,7.92,7.92,0,0,0,4.18-4l62.54-128.72a62.71,62.71,0,0,1,23.81-26.18,63.93,63.93,0,0,1,34.37-9.82,60.46,60.46,0,0,1,18.54,2.91,69.61,69.61,0,0,1,16.91,8A68.19,68.19,0,0,1,487.92,187a58.06,58.06,0,0,1,10,16l21.82,51.63a11.48,11.48,0,0,1,2,2.91c.6,1.21,1.21,2.36,1.81,3.45a9.82,9.82,0,0,0,2.19,2.73,5.7,5.7,0,0,0,3.81,1.09,7.27,7.27,0,0,0,6.37-3.63,70.29,70.29,0,0,0,3.82-6.55L561.55,203a65.19,65.19,0,0,1,59.64-39.27,60.46,60.46,0,0,1,18.54,2.91,73,73,0,0,1,17.09,8A62.58,62.58,0,0,1,671,187a60.68,60.68,0,0,1,9.82,16l50.9,121.81a72,72,0,0,1,5.82,20.54,189.63,189.63,0,0,1,1.09,21.28l46.91,34.9q5.46,4.37,5.45,10.55A13,13,0,0,1,777.9,425.2H738.63V764.81L712.82,791H634.28a49.72,49.72,0,0,1,4.18-20.36,53.85,53.85,0,0,1,11.27-16.54A51.6,51.6,0,0,1,686.64,739V608.1L608.1,477.56a126.61,126.61,0,0,1-46,38.72,129.47,129.47,0,0,1-58.36,13.64H346.66V764.81L320.47,791H242.3a49.72,49.72,0,0,1,4.18-20.36,54,54,0,0,1,11.27-16.54A51.64,51.64,0,0,1,294.66,739V555.73L216.48,468.1a103.55,103.55,0,0,1-19.63-32A101.67,101.67,0,0,1,189.94,399V242.3a49.88,49.88,0,0,0-4.18-20.36,53.79,53.79,0,0,0-27.82-27.82,49.72,49.72,0,0,0-20.36-4.18H99.76"/><path class="cls-5" d="M184.45,137.76c0-11.61,8.32-21,18.58-21s18.58,9.42,18.58,21"/><path class="cls-6" d="M269.73,644.88h88.35l-.51,7.18c-.5,6.91-.94,15.54-1.29,25.13-1.21,33.3-1.3,78.17,1.27,102.92l.74,7.15L243.82,791h-.56c-6.32,0-10.18-2.63-12.3-4.84-6.13-6.38-5.73-16.53-5.4-24.68.09-2.31.17-4.49.06-5.91l0-.22v-.22c-.33-24.36,22.66-27.9,37.88-30.24,3.53-.54,6.88-1.06,9.82-1.73,5.28-3.13,5.46-3.56,5.45-7.41"/><rect class="cls-7" x="221.61" y="769.87" width="137.81" height="21.12"/><rect class="cls-8" x="267.12" y="642.39" width="92.29" height="21.12"/><path class="cls-9" d="M668,646.13H756.4l-.52,7.18c-.5,6.91-.94,15.54-1.29,25.13-1.21,33.29-1.3,78.16,1.27,102.92l.75,7.15-114.48,3.72h-.56c-6.32,0-10.18-2.64-12.3-4.85-6.13-6.37-5.73-16.52-5.4-24.67a57.42,57.42,0,0,0,.06-5.92v-.44c-.32-24.35,22.67-27.89,37.88-30.23,3.53-.55,6.89-1.06,9.82-1.74,5.28-3.12,5.46-3.56,5.45-7.4"/><rect class="cls-7" x="619.92" y="771.12" width="137.81" height="21.12"/><rect class="cls-7" x="665.44" y="643.64" width="92.29" height="21.12"/></svg>