<svg id="Layer_1" data-name="Layer 1" xmlns="http://www.w3.org/2000/svg" viewBox="0 0 510.24 510.24"><defs><style>.cls-1{fill:#708cc7;}.cls-2,.cls-6{fill:#c96d3e;}.cls-3,.cls-5{fill:#ffde17;}.cls-4{fill:#e2bd23;}.cls-5,.cls-6{stroke:#231f20;stroke-miterlimit:10;}.cls-5{stroke-width:3px;}.cls-6{stroke-linecap:round;stroke-width:7px;}</style></defs><path class="cls-1" d="M432.2,498.1H78c-33.59,0-60.82-25.08-60.82-56v-4.16c0-30.93,27.23-56,60.82-56H432.2c33.6,0,60.83,25.09,60.83,56v4.16C493,473,465.8,498.1,432.2,498.1Z"/><path class="cls-2" d="M396.54,470.9a24.65,24.65,0,0,1-14.86-44.32A46.84,46.84,0,0,1,396.79,419V370.3l-1.3-1.21-21-50.48a46.86,46.86,0,0,0-10,4C352,333.61,333.85,339,309.05,339c-17.05,0-35-2.39-52.42-4.69-11.49-1.53-22.4-3-32-3.59a170.86,170.86,0,0,0-1.86,23.57V438.9a24.59,24.59,0,0,1-8.61,18.7L205.55,465a24.64,24.64,0,0,1-16,5.94H164.37a24.65,24.65,0,0,1-14.86-44.32A46.84,46.84,0,0,1,164.62,419v-77c0-.48,0-1.41,0-2.65.19-8.66.11-13.24,0-15.64-5.45-5-12.68-9.78-20.29-14.81-18.27-12-38.94-25.66-41.67-49.14A325.9,325.9,0,0,1,101,226.7c-.5-30.65-1.92-42.59-15.05-46.35-6.72-1.93-20.34-3.14-37.36-3.32a24.61,24.61,0,0,1-24.37-25.45c.85-24.93,13.44-43.87,36.41-54.78C77,89,98.28,85.25,125.75,85.25c1.44,0,2.88,0,4.31,0a48.07,48.07,0,0,1,26.58-12.76,17.51,17.51,0,0,1,19.8,17.34v11.7c17.37,14.56,14.73,50.89,12.18,86-.34,4.65-.73,10-1,15.33,1.65-3,3.46-6.48,5.39-10.13,17.62-33.38,30.25-55.73,44.47-61.53a58.28,58.28,0,0,1,26.06-6.6c28.34,0,45.67,23.76,54.4,40.6L324,152.88C331.75,136,350,125.5,371.58,125.5c21.35,0,39.55,10.27,47.5,26.79a23.46,23.46,0,0,1,.94,2.26c1.51,4.11,6.05,12.81,10.44,21.23C441,196,452.91,218.83,454.9,234.4l2.36,1.4c16.75,9.9,30,17.72,28.67,30.11a18.47,18.47,0,0,1-5.07,12.27c-6.13,6.48-15.31,7.31-22.62,7.31-1,0-2.12,0-3.33-.06V438.94a24.68,24.68,0,0,1-8.47,18.6L438,464.85a24.62,24.62,0,0,1-16.17,6Z"/><path class="cls-3" d="M156.93,356.61H226l-.4,5.62c-.39,5.4-.73,12.15-1,19.65-.94,26.05-1,61.14,1,80.51l.58,5.59-89.54,2.91h-.44a12.84,12.84,0,0,1-9.62-3.8c-4.79-5-4.48-12.92-4.22-19.29.07-1.81.14-3.52.05-4.63l0-.17v-.17c-.25-19,17.73-21.82,29.63-23.66,2.76-.42,5.38-.83,7.68-1.35C163.85,415.39,164,415,164,412"/><path class="cls-3" d="M367.7,470.9a12.84,12.84,0,0,1-9.62-3.8c-4.8-5-4.48-12.92-4.23-19.29a46.29,46.29,0,0,0,0-4.63v-.34c-.26-19,17.72-21.82,29.62-23.66,2.77-.42,5.39-.83,7.69-1.35,4.13-2.44,4.27-2.79,4.26-5.79l-7-55.43h69.1l-.4,5.62c-1.74,24.17-2.61,75.21,0,100.16l.59,5.59-89.54,2.91Z"/><rect class="cls-4" x="163.5" y="407.32" width="19.36" height="110.63" transform="translate(635.82 289.45) rotate(90)"/><rect class="cls-4" x="119.29" y="454.37" width="107.79" height="16.52"/><rect class="cls-4" x="396.02" y="407.32" width="19.36" height="110.62" transform="translate(868.34 56.93) rotate(90)"/><rect class="cls-4" x="351.81" y="454.37" width="107.79" height="16.52"/><rect class="cls-4" x="154.89" y="354.66" width="72.19" height="16.52"/><rect class="cls-4" x="387.41" y="354.66" width="72.19" height="16.52"/><path class="cls-5" d="M201.31,115.92c-1.72-.12-42.47-3.12-58.48-7.41S81.87,84.24,80,83.39l-8.88-4L94.75,64.28l17.53-.42c4.58-6.14,16.15-20.5,26.08-23.16a41.14,41.14,0,0,1,10.58-1.36c13.49,0,26.66,6.21,34.39,16.2,4.42,5.72,4.25,20,3.83,27.31l15.26,10.74,6.29,22.87Z"/><path class="cls-4" d="M149.6,80.64c8.65,2.17,35,3.18,35.25,3.19l.75-.08,14.91,10.37-3.08.23c-1.61,0-39.21-.86-48.67-3.37-10-2.64-47.16-21.91-48.74-22.73L95.29,65.8l17.13-.4"/><path class="cls-6" d="M99,126.2a14.52,14.52,0,1,1,29,0"/></svg>